<svg width="20" height="20" viewBox="0 0 20 20" fill="none" xmlns="http://www.w3.org/2000/svg">
<g id="Twitter">
<path id="Vector" d="M18.75 4.80963C18.1059 5.08291 17.4148 5.26824 16.6887 5.35098C17.4301 4.92586 17.9976 4.25154 18.2666 3.45051C17.5711 3.84421 16.8035 4.13008 15.9855 4.28505C15.3305 3.61597 14.3988 3.19922 13.3653 3.19922C11.3827 3.19922 9.77523 4.73844 9.77523 6.63576C9.77523 6.90485 9.80694 7.16767 9.86819 7.41899C6.88501 7.27552 4.23973 5.90699 2.46928 3.82745C2.1598 4.33426 1.98374 4.92479 1.98374 5.55516C1.98374 6.7478 2.618 7.80012 3.58033 8.41579C2.992 8.39695 2.43866 8.24198 1.95423 7.98439V8.02732C1.95423 9.69219 3.19213 11.0817 4.83353 11.3979C4.5328 11.4754 4.21568 11.5183 3.88761 11.5183C3.6558 11.5183 3.43161 11.4963 3.2118 11.4544C3.66889 12.8209 4.99429 13.8146 6.56463 13.8418C5.33657 14.7633 3.7881 15.3109 2.10624 15.3109C1.81646 15.3109 1.53103 15.2941 1.25 15.2638C2.83893 16.2407 4.7253 16.8103 6.75273 16.8103C13.3566 16.8103 16.9665 11.5728 16.9665 7.03053L16.9544 6.58552C17.6597 6.10382 18.2699 5.49862 18.75 4.80963Z" fill="white"/>
</g>
</svg>
