<svg width="20" height="20" viewBox="0 0 20 20" fill="none" xmlns="http://www.w3.org/2000/svg">
<g id="Facebook">
<path id="Vector" d="M14.6354 0.837799L12.321 0.833984C9.72086 0.833984 8.04054 2.60489 8.04054 5.34584V7.42611H5.71352C5.51244 7.42611 5.34961 7.59357 5.34961 7.80013V10.8142C5.34961 11.0208 5.51263 11.188 5.71352 11.188H8.04054V18.7935C8.04054 19 8.20337 19.1673 8.40445 19.1673H11.4405C11.6416 19.1673 11.8045 18.9999 11.8045 18.7935V11.188H14.5253C14.7264 11.188 14.8892 11.0208 14.8892 10.8142L14.8903 7.80013C14.8903 7.70095 14.8519 7.60597 14.7837 7.53578C14.7156 7.46559 14.6227 7.42611 14.5262 7.42611H11.8045V5.66264C11.8045 4.81505 12.0011 4.38476 13.0759 4.38476L14.635 4.38419C14.8359 4.38419 14.9987 4.21673 14.9987 4.01037V1.21163C14.9987 1.00545 14.8361 0.83818 14.6354 0.837799Z" fill="white"/>
</g>
</svg>
